<svg id="Calque_2" data-name="Calque 2" xmlns="http://www.w3.org/2000/svg" viewBox="0 0 135.22 135.22"><defs><style>.cls-1{fill:none;stroke:#6863ef;stroke-linecap:round;stroke-miterlimit:10;stroke-width:4px;}</style></defs><path class="cls-1" d="M276.3,333.9" transform="translate(-172.76 -211.39)"/><path class="cls-1" d="M276.3,333.9a65.6,65.6,0,1,1,10.56-8.6" transform="translate(-172.76 -211.39)"/><line class="cls-1" x1="77.24" y1="92.32" x2="103.55" y2="122.51"/><line class="cls-1" x1="32.11" y1="23.21" x2="32.11" y2="111.83"/><line class="cls-1" x1="49.53" y1="35.33" x2="49.53" y2="111.83"/><line class="cls-1" x1="32.11" y1="111.83" x2="49.53" y2="111.83"/><line class="cls-1" x1="49.53" y1="35.33" x2="67.61" y2="35.33"/><path class="cls-1" d="M228.15,302l12.22-.19c0-9.28.28-18.56.09-27.84-.09-4.76,6.5-7.44,9.28-7.76a17.62,17.62,0,0,1,14.06,4.2,1,1,0,0,0,1.59-.23l7.41-12.25a3.22,3.22,0,0,0-.37-3.86c-3.78-4.1-14.5-12.55-32.06-1.83" transform="translate(-172.76 -211.39)"/><line class="cls-1" x1="67.61" y1="40.86" x2="67.61" y2="35.33"/><path class="cls-1" d="M204.86,234.6h47.7c2.49,0,8.26.56,10.59,1.44,7.82,2.93,13.22,7.69,16.74,18.22,2,6.06,2.75,17.2-1.48,25.69-5.5,11-18.4,9.95-22.11,9.22a.53.53,0,0,0-.49.88l31.05,35.25" transform="translate(-172.76 -211.39)"/></svg>